<svg xmlns="http://www.w3.org/2000/svg" xmlns:xlink="http://www.w3.org/1999/xlink" width="1440" height="810" viewBox="0 0 1440 810">
  <defs>
    <clipPath id="clip-path">
      <rect id="Rectangle_1864" data-name="Rectangle 1864" width="1440" height="810" fill="#fff" stroke="#707070" stroke-width="1"/>
    </clipPath>
    <clipPath id="clip-path-2">
      <rect id="Mask_Shape" data-name="Mask Shape" width="1440" height="1141" transform="translate(42 -0.179)" fill="#fff"/>
    </clipPath>
    <linearGradient id="linear-gradient" x1="0.984" y1="0.861" x2="0.098" y2="0.012" gradientUnits="objectBoundingBox">
      <stop offset="0" stop-color="#005cab"/>
      <stop offset="1" stop-color="#4fbdcf"/>
    </linearGradient>
    <linearGradient id="linear-gradient-2" x1="0.962" y1="0.054" x2="0.101" y2="0.366" xlink:href="#linear-gradient"/>
    <linearGradient id="linear-gradient-3" x1="0.984" y1="0.861" x2="0.098" y2="0.012" gradientUnits="objectBoundingBox">
      <stop offset="0" stop-color="#0069d4"/>
      <stop offset="1" stop-color="#2586bc"/>
    </linearGradient>
    <linearGradient id="linear-gradient-4" x1="0.962" y1="0.054" x2="0.101" y2="0.366" gradientUnits="objectBoundingBox">
      <stop offset="0" stop-color="#2586bc"/>
      <stop offset="1" stop-color="#0970ce"/>
    </linearGradient>
    <linearGradient id="linear-gradient-5" x1="0.68" y1="0.129" x2="0.278" y2="0.482" gradientUnits="objectBoundingBox">
      <stop offset="0" stop-color="#fcfdff"/>
      <stop offset="0.68" stop-color="#fefeff" stop-opacity="0.353"/>
      <stop offset="1" stop-color="#fff" stop-opacity="0"/>
    </linearGradient>
  </defs>
  <g id="Mask_Group_3078" data-name="Mask Group 3078" clip-path="url(#clip-path)">
    <g id="Home_BG" data-name="Home BG" transform="translate(-11.41 -0.18)">
      <g id="Group_28" data-name="Group 28" transform="translate(-30.59 0.179)" clip-path="url(#clip-path-2)">
        <g id="Create_BG" data-name="Create BG">
          <path id="BG" d="M7.732-213.686H1496.006V656.293s-199.838,25.564-413.139,7.209c-179.44-15.442-388.326-52.338-555.613-52.338C161.2,611.165,0,664.154,0,664.154Z" transform="translate(0 213.686)" fill="url(#linear-gradient)"/>
          <path id="Middle_Swirl" data-name="Middle Swirl" d="M0,198.72s214.391,104.464,499,75.763c202.441-20.415,459.541-101.017,614.66-101.017,371.989,0,374.29,45.917,374.29,45.917l8.052-414.559s-199.838-34.184-413.139-9.64c-179.44,20.648-388.326,69.985-555.613,69.985C161.2-134.832,0-205.688,0-205.688Z" transform="translate(0 414.479)" opacity="0.5" fill="url(#linear-gradient-2)"/>
          <path id="Bottom_Swirl" data-name="Bottom Swirl" d="M0,567.027H1496.006v89.266s-199.838,25.564-413.139,7.209c-179.44-15.442-388.326-52.338-555.613-52.338C161.2,611.165,0,664.154,0,664.154Z" transform="translate(1524.01 1426.388) rotate(180)" fill="#2e95c0"/>
          <path id="White" d="M7.732-213.686H1496.006V656.293s-199.838,25.564-413.139,7.209c-179.44-15.442-388.326-52.338-555.613-52.338C161.2,611.165,0,664.154,0,664.154Z" transform="matrix(-1, 0.017, -0.017, -1, 1522.875, 1428.867)" fill="#fefefe"/>
        </g>
        <g id="Default">
          <path id="BG-2" data-name="BG" d="M7.732-213.686H1496.006V656.293s-199.838,25.564-413.139,7.209c-179.44-15.442-388.326-52.338-555.613-52.338C161.2,611.165,0,664.154,0,664.154Z" transform="translate(0 213.686)" fill="url(#linear-gradient-3)"/>
          <path id="Middle_Swirl-2" data-name="Middle Swirl" d="M0,198.72s214.391,104.464,499,75.763c202.441-20.415,459.541-101.017,614.66-101.017,371.989,0,374.29,45.917,374.29,45.917l8.052-414.559s-199.838-34.184-413.139-9.64c-179.44,20.648-388.326,69.985-555.613,69.985C161.2-134.832,0-205.688,0-205.688Z" transform="translate(0 414.479)" opacity="0.5" fill="url(#linear-gradient-4)"/>
          <path id="Bottom_Swirl-2" data-name="Bottom Swirl" d="M0,567.027H1496.006v89.266s-199.838,25.564-413.139,7.209c-179.44-15.442-388.326-52.338-555.613-52.338C161.2,611.165,0,664.154,0,664.154Z" transform="translate(1524.01 1426.388) rotate(180)" fill="#00cfd6" opacity="0.78"/>
          <path id="White-2" data-name="White" d="M7.732-213.686H1496.006V656.293s-199.838,25.564-413.139,7.209c-179.44-15.442-388.326-52.338-555.613-52.338C161.2,611.165,0,664.154,0,664.154Z" transform="matrix(-1, 0.017, -0.017, -1, 1522.875, 1428.867)" fill="#fefefe"/>
        </g>
        <path id="Path_1049" data-name="Path 1049" d="M1122.046,2660.849a4.195,4.195,0,1,1,5.82-1.183A4.183,4.183,0,0,1,1122.046,2660.849Zm-44.717,37.8a12.36,12.36,0,1,0-16.943,4.291A12.358,12.358,0,0,0,1077.329,2698.653Zm-1.371,71.381a19.261,19.261,0,1,0-26.727,5.305A19.241,19.241,0,0,0,1075.958,2770.034Zm-50.624,69.979a25.728,25.728,0,1,0-5.82-35.9A25.754,25.754,0,0,0,1025.334,2840.013Zm-16.476,29.412a30.42,30.42,0,1,0-41.956,9.534A30.388,30.388,0,0,0,1008.858,2869.424Zm19.455-130.226a22.366,22.366,0,1,0-30.166,9.533A22.344,22.344,0,0,0,1028.313,2739.2Zm-52.705,72.427a28.184,28.184,0,1,0-11.266-38.228A28.205,28.205,0,0,0,975.608,2811.625Zm149.23-80.062a10.015,10.015,0,1,0-14.008,2.094A10.009,10.009,0,0,0,1124.838,2731.563Zm44.006,37.163a7.482,7.482,0,1,0-10.568.518A7.478,7.478,0,0,0,1168.844,2768.726Zm51.241-34.447a2.155,2.155,0,1,0-3.047.055A2.16,2.16,0,0,0,1220.085,2734.279Zm-117.263,106.595a22.858,22.858,0,1,0,1.128,32.292A22.879,22.879,0,0,0,1102.822,2840.874Zm-8.674,72.98a25.964,25.964,0,1,0-2.281,36.633A25.99,25.99,0,0,0,1094.148,2913.854Zm26.471-107.791a16.8,16.8,0,1,0-23.679,2.036A16.785,16.785,0,0,0,1120.619,2806.064Zm54.768-111.364a2.841,2.841,0,1,0-3.995.443A2.839,2.839,0,0,0,1175.387,2694.7ZM1096.7,3338.819a12.152,12.152,0,1,0,6.524,15.9A12.169,12.169,0,0,0,1096.7,3338.819ZM794.273,2487.787a8.444,8.444,0,1,0-8.761,8.108A8.434,8.434,0,0,0,794.273,2487.787Zm-72.166,41.129a19.25,19.25,0,1,0,20.252,18.209A19.256,19.256,0,0,0,722.107,2528.917Zm355.577,100.218a5.853,5.853,0,1,0-7.932,2.386A5.849,5.849,0,0,0,1077.684,2629.134ZM735.729,2487.2a10.533,10.533,0,1,0-10.039,11A10.534,10.534,0,0,0,735.729,2487.2Zm-75.818,45.489a21.6,21.6,0,1,0,24.49,18.276A21.6,21.6,0,0,0,659.911,2532.691Zm91.365-106.015a3.184,3.184,0,1,0-3.147,3.219A3.185,3.185,0,0,0,751.276,2426.676Zm55.435,182.241a25.508,25.508,0,1,0-26.471,24.5A25.5,25.5,0,0,0,806.711,2608.917Zm-6.113-60.559a17.083,17.083,0,1,0-17.722,16.4A17.075,17.075,0,0,0,800.6,2548.358ZM963,2680.888a25.1,25.1,0,1,0,14.369,32.462A25.122,25.122,0,0,0,963,2680.888Zm11.516-33.551a17.634,17.634,0,1,0-22.483,10.8A17.619,17.619,0,0,0,974.517,2647.337Zm52.986,23.381a15.389,15.389,0,1,0-20.458,7.423A15.377,15.377,0,0,0,1027.5,2670.719Zm-123.295-11.911A27.966,27.966,0,1,0,924.1,2693,27.99,27.99,0,0,0,904.208,2658.808Zm16.507-29.385a21.1,21.1,0,1,0-25.48,15.522A21.085,21.085,0,0,0,920.715,2629.423Zm-56.45-12.978a23.359,23.359,0,1,0-26.353,19.908A23.346,23.346,0,0,0,864.265,2616.445Zm369.486,511.533a9.906,9.906,0,1,0-11.622-7.828A9.9,9.9,0,0,0,1233.75,3127.978Zm-214.536,233.688a10.937,10.937,0,1,0,3.434,15.082A10.947,10.947,0,0,0,1019.215,3361.665Zm-85.638,102.989a7.482,7.482,0,1,0-10.413-1.91A7.476,7.476,0,0,0,933.577,3464.654ZM1120.1,3192.483a18.173,18.173,0,1,0-19.9-16.277A18.174,18.174,0,0,0,1120.1,3192.483Zm134.343-202.216a6.832,6.832,0,1,0-9.067-3.356A6.826,6.826,0,0,0,1254.445,2990.267Zm23.866-85.229a2.5,2.5,0,1,0-3.421-.879A2.5,2.5,0,0,0,1278.311,2905.038ZM1028.288,3311.7a13.055,13.055,0,1,0,16.812-7.627A13.04,13.04,0,0,0,1028.288,3311.7Zm151.031-229.223a17.912,17.912,0,1,0-11.933,22.331A17.909,17.909,0,0,0,1179.319,3082.477Zm11.428,61.58a15.392,15.392,0,1,0-12.88,17.535A15.383,15.383,0,0,0,1190.747,3144.056Zm-513.874-652.65a12.162,12.162,0,1,0-10.494,13.613A12.16,12.16,0,0,0,676.873,2491.406Zm516.872,714.87a13.355,13.355,0,1,0-13.229,13.468A13.347,13.347,0,0,0,1193.745,3206.276Zm81.289-161.983a4.862,4.862,0,1,0-6.144-3.083A4.852,4.852,0,0,0,1275.034,3044.292ZM1306,2958a2.154,2.154,0,1,0-2.866-1.046A2.152,2.152,0,0,0,1306,2958Zm-105.71,58.535a14.517,14.517,0,1,0-19.355-6.881A14.516,14.516,0,0,0,1200.294,3016.533Zm19.984,54.374a11.849,11.849,0,1,0-14.968-7.555A11.847,11.847,0,0,0,1220.278,3070.906Zm-41.215-129.652a17.081,17.081,0,1,0-5.185,23.582A17.1,17.1,0,0,0,1179.064,2941.254Zm17.884-50.607a11.245,11.245,0,1,0-15.765-2.136A11.238,11.238,0,0,0,1196.948,2890.646Zm-37.469,131.989a20.841,20.841,0,1,0-10.045,27.691A20.845,20.845,0,0,0,1159.478,3022.636Zm86.635-166.748a3.856,3.856,0,1,0-5.4-.817A3.857,3.857,0,0,0,1246.114,2855.888Zm-85.37-9.8a13.645,13.645,0,1,0-19.3-.472A13.636,13.636,0,0,0,1160.743,2846.085Zm-16.457,42.668a20.054,20.054,0,1,0-2.567,28.234A20.071,20.071,0,0,0,1144.286,2888.753Zm83.912,49.942a8.757,8.757,0,1,0-12.027-3A8.76,8.76,0,0,0,1228.2,2938.695Zm-97.64,27.529a23.109,23.109,0,1,0-6.649,31.983A23.12,23.12,0,0,0,1130.558,2966.224Zm78.933-155.887a5.527,5.527,0,1,0-7.808-.4A5.524,5.524,0,0,0,1209.492,2810.337ZM1031.03,3141.03a20.056,20.056,0,1,0,14.5-24.361A20.055,20.055,0,0,0,1031.03,3141.03Zm-73.7,205.716a9.387,9.387,0,1,0-2.941-12.946A9.4,9.4,0,0,0,957.331,3346.746Zm144.7-251.112a20.741,20.741,0,1,0,25.468,14.584A20.742,20.742,0,0,0,1102.031,3095.633Zm-91.184,129.672a11.857,11.857,0,1,0-12.538,11.128A11.844,11.844,0,0,0,1010.846,3225.306ZM873.419,3482.159a6.183,6.183,0,1,0,8.107,3.283A6.182,6.182,0,0,0,873.419,3482.159ZM984.55,3294.433a10.938,10.938,0,1,0-7.079-13.757A10.951,10.951,0,0,0,984.55,3294.433Zm65.679-427.369a28.618,28.618,0,1,0,3.259,40.326A28.647,28.647,0,0,0,1050.229,2867.064ZM210.245,3033.414a27.473,27.473,0,1,0-34.591,17.686A27.455,27.455,0,0,0,210.245,3033.414Zm-16.183-38.681a28.329,28.329,0,1,0-14.606-37.3A28.358,28.358,0,0,0,194.063,2994.732Zm12.905-93.937a28.98,28.98,0,1,0,39.47-11.059A28.955,28.955,0,0,0,206.968,2900.8Zm81.551-19.677a29.6,29.6,0,1,0-41.246,7.229A29.579,29.579,0,0,0,288.518,2881.119Zm10.425,3.705a20.054,20.054,0,1,0,27.967-4.751A20.04,20.04,0,0,0,298.944,2884.824Zm272.319-184.663a28.125,28.125,0,1,0-14.856,36.872A28.139,28.139,0,0,0,571.263,2700.161Zm-233.89,135.987a20.315,20.315,0,1,0,28.689-1.67A20.289,20.289,0,0,0,337.373,2836.147ZM275.831,3008.53a20.056,20.056,0,1,0-26.247,10.748A20.031,20.031,0,0,0,275.831,3008.53Zm-4.991-289.183a28.4,28.4,0,1,0,40.186.161A28.371,28.371,0,0,0,270.84,2719.347Zm207.718-139.655a26.64,26.64,0,1,0,35.164,13.563A26.633,26.633,0,0,0,478.558,2579.692Zm59.061-21.265a25.026,25.026,0,1,0,31.743,15.692A25.02,25.02,0,0,0,537.62,2558.427Zm-115.83,48.316a27.751,27.751,0,1,0,37.762,10.742A27.726,27.726,0,0,0,421.79,2606.743Zm-104.115,70.521a28.188,28.188,0,1,0,39.7,3.787A28.169,28.169,0,0,0,317.675,2677.265Zm50.456-37.636a27.97,27.97,0,1,0,38.89,7.322A27.955,27.955,0,0,0,368.131,2639.628ZM266.359,2937.536a19.528,19.528,0,1,0,26.558-7.59A19.511,19.511,0,0,0,266.359,2937.536Zm-17.679-394.228a4.863,4.863,0,1,0-6.823-.915A4.864,4.864,0,0,0,248.681,2543.308Zm-129.72,192.952a11.754,11.754,0,1,0,16.445-2.429A11.75,11.75,0,0,0,118.961,2736.259Zm54.774-48.671a11.752,11.752,0,1,0,1.171,16.577A11.758,11.758,0,0,0,173.736,2687.588Zm-93.322,19.1a5.2,5.2,0,1,0,1.115,7.261A5.209,5.209,0,0,0,80.414,2706.693Zm135.153-62.346a11.854,11.854,0,1,0-.106,16.764A11.87,11.87,0,0,0,215.567,2644.348ZM84.695,2786.655a11.551,11.551,0,1,0,15.928-3.619A11.536,11.536,0,0,0,84.695,2786.655Zm33.743-119.883a4.866,4.866,0,1,0-6.861.554A4.867,4.867,0,0,0,118.438,2666.772ZM633.2,2624.727a29.668,29.668,0,1,0-1.383-6.45,30.857,30.857,0,0,0-60.164,10.554,31.649,31.649,0,0,0-57.915,20.405,31.632,31.632,0,0,0-54.55,27.771,31.264,31.264,0,0,0-50.861,33.59,30.8,30.8,0,0,0-46.642,38.874,30.4,30.4,0,0,0-41.115,44.575,29.758,29.758,0,1,0,2.418,2.3,30.4,30.4,0,0,0,46.075-38.3,30.8,30.8,0,0,0,48.181-34.709,31.269,31.269,0,0,0,50.948-30.264,31.636,31.636,0,0,0,53.428-25.761,31.639,31.639,0,0,0,55.26-22.211,30.858,30.858,0,0,0,56.32-20.382Zm60.1-14.377a27.838,27.838,0,1,0,26.072-29.48A27.823,27.823,0,0,0,693.3,2610.35ZM190.448,2816.028a27.758,27.758,0,1,0,38.641-6.944A27.735,27.735,0,0,0,190.448,2816.028Zm37.569-50.507a28.622,28.622,0,1,0,40.336-3.512A28.594,28.594,0,0,0,228.018,2765.521Zm124.124,184.04a4.53,4.53,0,1,0,1.421,6.246A4.533,4.533,0,0,0,352.141,2949.56ZM455.215,2789.1a23.836,23.836,0,1,0-33.282-5.443A23.816,23.816,0,0,0,455.215,2789.1ZM260.284,2604.708a11.55,11.55,0,1,0-1.352,16.27A11.56,11.56,0,0,0,260.284,2604.708Zm-6.618,115.51a20.312,20.312,0,1,0-28.739.406A20.3,20.3,0,0,0,253.666,2720.218Zm205.357-224.964a8.643,8.643,0,0,0,4.649-11.313l-15.971,6.67A8.652,8.652,0,0,0,459.023,2495.253Zm-6.549-15.76a8.644,8.644,0,0,0-4.649,11.315l15.971-6.669A8.652,8.652,0,0,0,452.473,2479.493Zm-55.136,103.394a19.261,19.261,0,1,0-6.4,26.465A19.28,19.28,0,0,0,397.338,2582.887ZM450.18,2555.4a18.184,18.184,0,1,0-8.113,24.384A18.186,18.186,0,0,0,450.18,2555.4Zm64.227-81.738a7.8,7.8,0,1,0-9.858-4.956A7.8,7.8,0,0,0,514.408,2473.664Zm-160.079,77.285a10.629,10.629,0,1,0-14.625-3.518A10.618,10.618,0,0,0,354.328,2550.949Zm-84.691,97.963a20.573,20.573,0,1,0,29.038,2.025A20.558,20.558,0,0,0,269.637,2648.912Zm49.191-38.245a19.787,19.787,0,1,0,27.661,4.276A19.773,19.773,0,0,0,318.828,2610.667Zm87.053-88.942a10.322,10.322,0,1,0-13.9-4.5A10.323,10.323,0,0,0,405.881,2521.725Zm202.2-4.534a14.226,14.226,0,1,0-16.925-10.9A14.228,14.228,0,0,0,608.078,2517.191Zm25.966-80.2a5.525,5.525,0,1,0-5,5.991A5.524,5.524,0,0,0,634.045,2436.987Zm-35.8,105.735A23.346,23.346,0,1,0,626.4,2560,23.348,23.348,0,0,0,598.245,2542.722Zm-93.166-10.368a17.083,17.083,0,1,0-9.515,22.194A17.088,17.088,0,0,0,505.079,2532.354Zm45.988,1.464a15.951,15.951,0,1,0-19.928-10.586A15.949,15.949,0,0,0,551.067,2533.818Zm20.258-77.57a6.836,6.836,0,1,0-8.282-4.994A6.834,6.834,0,0,0,571.325,2456.248ZM504.468,2760.2a25.957,25.957,0,1,0-35.376-9.877A25.939,25.939,0,0,0,504.468,2760.2ZM305.125,2583.94a10.837,10.837,0,1,0-15.142-2.435A10.838,10.838,0,0,0,305.125,2583.94ZM194.461,3088.616a26.577,26.577,0,1,0-31.593,20.357A26.558,26.558,0,0,0,194.461,3088.616Zm-85.956-15.53a23.1,23.1,0,1,0-16.868-27.978A23.113,23.113,0,0,0,108.505,3073.086ZM409.352,2823.48a21.856,21.856,0,1,0-30.877-1.6A21.833,21.833,0,0,0,409.352,2823.48ZM123.211,3016a24.554,24.554,0,1,0-15.149-31.247A24.577,24.577,0,0,0,123.211,3016Zm133.334,46.779a20.058,20.058,0,1,0-24.907,13.569A20.047,20.047,0,0,0,256.545,3062.775Zm-133.222,50.313a21.358,21.358,0,1,0-24.346,17.866A21.346,21.346,0,0,0,123.323,3113.088ZM112.961,2841.2a19.528,19.528,0,1,0,26.652-7.237A19.506,19.506,0,0,0,112.961,2841.2Zm6.269,71.511a18.994,18.994,0,1,0-25.243,9.186A18.972,18.972,0,0,0,119.229,2912.709Zm31.444-96.371a20.311,20.311,0,1,0-5.191-28.245A20.324,20.324,0,0,0,150.673,2816.338Zm6.817,53.234a27.1,27.1,0,1,0,36.952-10.18A27.077,27.077,0,0,0,157.49,2869.573Zm57.5-104.955a21.093,21.093,0,1,0-29.693,2.913A21.073,21.073,0,0,0,214.994,2764.618Zm477.614-335.239a4.533,4.533,0,1,0-4.107,4.912A4.528,4.528,0,0,0,692.608,2429.379ZM143.04,2960.171a25.725,25.725,0,1,0-12.824-34.042A25.742,25.742,0,0,0,143.04,2960.171ZM632.119,2727.13a17.077,17.077,0,1,0,20.838,12.216A17.078,17.078,0,0,0,632.119,2727.13Zm40.392,8a23.605,23.605,0,1,0,20.364-26.433A23.608,23.608,0,0,0,672.511,2735.132Zm72.926,53.316a8.762,8.762,0,1,0,8.674-8.836A8.754,8.754,0,0,0,745.438,2788.448Zm-17.392-60.279a28.344,28.344,0,1,0,28.241-28.425A28.335,28.335,0,0,0,728.046,2728.169Zm121.182,69.356a25.039,25.039,0,1,0,30.92-17.249A25.023,25.023,0,0,0,849.228,2797.526Zm-51-7.584a16.243,16.243,0,1,0,18.264-13.929A16.24,16.24,0,0,0,798.23,2789.941Zm14.837-27.125a31.409,31.409,0,0,0,31.462-16.277,32.154,32.154,0,0,0,58.993,13.625,30.659,30.659,0,1,0,5.091-15.841,32.166,32.166,0,0,0-60.576-16.545,31.4,31.4,0,1,0-34.971,35.039ZM429.61,2863.259a4.53,4.53,0,1,0-6.406-.18A4.525,4.525,0,0,0,429.61,2863.259Zm-152.9,257.1a7.163,7.163,0,1,0,8.356-5.721A7.165,7.165,0,0,0,276.71,3120.361Zm1051.484-107.248a1.465,1.465,0,1,0-1.869-.9A1.471,1.471,0,0,0,1328.194,3013.113ZM574.335,2751.292a12.153,12.153,0,1,0,15.809,6.768A12.15,12.15,0,0,0,574.335,2751.292Zm-43.745,951.666a4.531,4.531,0,1,0,5.995-2.267A4.531,4.531,0,0,0,530.591,3702.958ZM519.86,2780.9a8.759,8.759,0,1,0,11.915,3.413A8.761,8.761,0,0,0,519.86,2780.9ZM293.666,3061.373a5.2,5.2,0,1,0,6.537-3.356A5.19,5.19,0,0,0,293.666,3061.373Zm279.018-361.854a30.214,30.214,0,0,0,59.124-7.627,31.788,31.788,0,0,0,58.787-7.416,32.349,32.349,0,0,0,58.881-4.16,31.856,31.856,0,0,0,59.392-1.276,30.056,30.056,0,1,0,1.5-15.992,31.863,31.863,0,0,0-61.28-6.034,32.364,32.364,0,0,0-61.423,4.509,31.8,31.8,0,0,0-59.691,14.515,30.214,30.214,0,0,0-55.285,23.481Zm-200.44,974.2a4.531,4.531,0,1,0,6.375-.629A4.531,4.531,0,0,0,372.244,3673.715Zm104.358.561a5.858,5.858,0,1,0,8.02-2.055A5.846,5.846,0,0,0,476.6,3674.275Zm51.042-110.306a6.51,6.51,0,1,0,8.979-2.036A6.5,6.5,0,0,0,527.643,3563.97Zm433.782-623.911a23.594,23.594,0,1,0-4.686-33.03A23.617,23.617,0,0,0,961.425,2940.059ZM580.947,3593.417a5.859,5.859,0,1,0,7.733-2.963A5.852,5.852,0,0,0,580.947,3593.417ZM905.23,2947.189a.535.535,0,1,0,.729-.207A.535.535,0,0,0,905.23,2947.189Zm45.726,31.277a6.185,6.185,0,1,0,8.724-.623A6.184,6.184,0,0,0,950.956,2978.466Zm-429.8,652.046a6.839,6.839,0,1,0,9.279-2.734A6.828,6.828,0,0,0,521.156,3630.512Zm397.166-728.258a14.518,14.518,0,1,0-6.194-19.572A14.526,14.526,0,0,0,918.322,2902.254ZM426.451,3639.921a6.836,6.836,0,1,0,9.578-1.351A6.838,6.838,0,0,0,426.451,3639.921Zm476.467-827.095a29.606,29.606,0,1,0,39.1-14.988A29.582,29.582,0,0,0,902.918,2812.826ZM479.131,3527.174a7.159,7.159,0,1,0,10.095-.822A7.148,7.148,0,0,0,479.131,3527.174Zm-57.959,183.193a3.52,3.52,0,1,0,4.879-.977A3.525,3.525,0,0,0,421.173,3710.367Zm48.368-113.412a7.806,7.806,0,1,0,10.9-1.768A7.8,7.8,0,0,0,469.541,3596.955Zm7.366-770.509a6.509,6.509,0,1,0-9.1-1.409A6.5,6.5,0,0,0,476.907,2826.446Zm-448.2,68.268a10.635,10.635,0,1,0,13.99-5.531A10.623,10.623,0,0,0,28.705,2894.713ZM54.753,2839.7a10.942,10.942,0,1,0,14.787-4.569A10.936,10.936,0,0,0,54.753,2839.7ZM-71.882,3037.984a3.183,3.183,0,0,0,2.474,3.76,3.176,3.176,0,0,0,3.758-2.471,3.172,3.172,0,0,0-2.468-3.755A3.179,3.179,0,0,0-71.882,3037.984Zm50.593,31.615A7.808,7.808,0,0,0-15,3078.666a7.809,7.809,0,0,0,9.073-6.289,7.8,7.8,0,0,0-6.294-9.067A7.81,7.81,0,0,0-21.289,3069.6Zm216.779-488.7a4.864,4.864,0,1,0,.43-6.862A4.869,4.869,0,0,0,195.489,2580.9Zm193.18,326.241a4.528,4.528,0,1,0-6.375.623A4.523,4.523,0,0,0,388.67,2907.142ZM-9.144,3010.149a8.756,8.756,0,0,0,6.263,10.686,8.762,8.762,0,0,0,10.693-6.259,8.755,8.755,0,0,0-6.263-10.684A8.764,8.764,0,0,0-9.144,3010.149Zm160.9-387.3a5.193,5.193,0,1,0-.069-7.34A5.191,5.191,0,0,0,151.757,2622.851ZM-17.787,2864.928a4.865,4.865,0,0,0,2.468,6.42,4.864,4.864,0,0,0,6.418-2.466,4.852,4.852,0,0,0-2.461-6.415A4.866,4.866,0,0,0-17.787,2864.928Zm-40.324,114.136a3.858,3.858,0,0,0,2.661,4.764,3.856,3.856,0,0,0,4.761-2.659,3.852,3.852,0,0,0-2.655-4.762A3.858,3.858,0,0,0-58.111,2979.063Zm97.129-221.141a5.2,5.2,0,1,0,7.166-1.631A5.194,5.194,0,0,0,39.018,2757.923ZM8.846,2810.491a4.867,4.867,0,1,0,6.587-1.993A4.866,4.866,0,0,0,8.846,2810.491Zm53.578,144.143a17.361,17.361,0,1,0,22.29-10.292A17.353,17.353,0,0,0,62.424,2954.634ZM-39.84,2921.351a4.189,4.189,0,0,0,2.517,5.369,4.19,4.19,0,0,0,5.371-2.509,4.2,4.2,0,0,0-2.511-5.375A4.2,4.2,0,0,0-39.84,2921.351Zm47.49,30.42a9.6,9.6,0,1,0,12.207-5.94A9.593,9.593,0,0,0,7.65,2951.771Zm17.56,307.293a10.635,10.635,0,1,0,9.908-11.31A10.628,10.628,0,0,0,25.21,3259.064Zm50.817-90.394A19.8,19.8,0,1,0,97,3150.133,19.79,19.79,0,0,0,76.027,3168.67Zm.916,62.1a17.914,17.914,0,1,0,17.367-18.433A17.916,17.916,0,0,0,76.943,3230.774Zm239.368-226.262a4.864,4.864,0,1,0,6.462-2.347A4.866,4.866,0,0,0,316.311,3004.513ZM-23.539,3310.661a3.851,3.851,0,0,0,4.318,3.33,3.852,3.852,0,0,0,3.334-4.314,3.85,3.85,0,0,0-4.318-3.332A3.853,3.853,0,0,0-23.539,3310.661Zm226.612-199.01a20.842,20.842,0,1,0,24.172-16.857A20.833,20.833,0,0,0,203.073,3111.65Zm-47.191,55.674a25.178,25.178,0,1,0-22.19-27.858A25.188,25.188,0,0,0,155.883,3167.325Zm-124.167-92.75a15.1,15.1,0,1,0,17.622-12.068A15.1,15.1,0,0,0,31.715,3074.574ZM-31.372,3190.2a5.516,5.516,0,0,0,5.384,5.66,5.525,5.525,0,0,0,5.671-5.379,5.526,5.526,0,0,0-5.39-5.661A5.522,5.522,0,0,0-31.372,3190.2Zm2.555-60.47a6.837,6.837,0,0,0,6.107,7.5,6.835,6.835,0,0,0,7.5-6.1,6.837,6.837,0,0,0-6.107-7.5A6.842,6.842,0,0,0-28.817,3129.734ZM55.731,3034.5a16.794,16.794,0,1,0-11.74-20.649A16.805,16.805,0,0,0,55.731,3034.5ZM24.343,3135.935A13.648,13.648,0,1,0,39.3,3123.742,13.647,13.647,0,0,0,24.343,3135.935ZM22.879,3197.6a11.455,11.455,0,1,0,11.653-11.246A11.446,11.446,0,0,0,22.879,3197.6Zm-52.811,53.022a4.858,4.858,0,0,0,5.1,4.609,4.863,4.863,0,0,0,4.611-5.1,4.865,4.865,0,0,0-5.11-4.608A4.86,4.86,0,0,0-29.932,3250.618ZM864.937,2864.7a5.195,5.195,0,1,0,6.543-3.34A5.192,5.192,0,0,0,864.937,2864.7ZM1165.2,3264.953a11.553,11.553,0,1,0,12.986-9.906A11.555,11.555,0,0,0,1165.2,3264.953Zm-178.86,293.065a6.182,6.182,0,1,0,8.562,1.774A6.17,6.17,0,0,0,986.344,3558.018Zm49.116-101.058a9.284,9.284,0,1,0-13.117.764A9.276,9.276,0,0,0,1035.46,3456.959Zm23.368-45.016a10.528,10.528,0,1,0-3.3-14.515A10.536,10.536,0,0,0,1058.828,3411.943Zm-122.6,243.191a3.183,3.183,0,1,0,4.138,1.773A3.18,3.18,0,0,0,936.225,3655.135Zm97.092-133.358a6.511,6.511,0,1,0,9.2.573A6.5,6.5,0,0,0,1033.317,3521.776Zm121.544-199.042a9.913,9.913,0,1,0,12.245-6.824A9.905,9.905,0,0,0,1154.861,3322.734ZM931.526,3595.148a6.184,6.184,0,1,0,2.979-8.214A6.184,6.184,0,0,0,931.526,3595.148Zm143.665-106.009a7.158,7.158,0,1,0-.816-10.087A7.162,7.162,0,0,0,1075.192,3489.14ZM879.27,3608.811a5.525,5.525,0,1,0,6.892,3.679A5.52,5.52,0,0,0,879.27,3608.811Zm217.707-318.775a13.847,13.847,0,1,0,16.65-10.293A13.839,13.839,0,0,0,1096.977,3290.036Zm21.28-40.089a15.855,15.855,0,1,0-14.787-16.863A15.853,15.853,0,0,0,1118.257,3249.946ZM980.125,3485.658a8.124,8.124,0,1,0,11.428,1.227A8.123,8.123,0,0,0,980.125,3485.658ZM878.865,3673.279a3.858,3.858,0,1,0,4.7,2.758A3.853,3.853,0,0,0,878.865,3673.279Zm411.106-572.141a3.855,3.855,0,1,0-4.58-2.965A3.856,3.856,0,0,0,1289.97,3101.139Zm-202.39,457.246a3.181,3.181,0,1,0,4.5.125A3.176,3.176,0,0,0,1087.58,3558.384Zm41.32-43.788a2.839,2.839,0,1,0,3.994-.393A2.836,2.836,0,0,0,1128.9,3514.6Zm87.47-152.9a4.191,4.191,0,1,0-2.711-5.273A4.2,4.2,0,0,0,1216.371,3361.7Zm-215.352-382.463a26.571,26.571,0,1,0,.916-37.556A26.588,26.588,0,0,0,1001.019,2979.233Zm-68.795,540.026a7.158,7.158,0,1,0,9.752,2.721A7.155,7.155,0,0,0,932.224,3519.259Zm315.235-341.465a7.807,7.807,0,1,0-7.266,8.3A7.8,7.8,0,0,0,1247.46,3177.794Zm-48.418,237.93a3.857,3.857,0,1,0-5.129,1.867A3.853,3.853,0,0,0,1199.042,3415.724Zm99.584-256.8a2.5,2.5,0,1,0-2.736-2.243A2.5,2.5,0,0,0,1298.626,3158.92Zm-52.232,80.34a6.514,6.514,0,1,0-6.886,6.116A6.51,6.51,0,0,0,1246.394,3239.261Zm-99.26,135.464a8.013,8.013,0,1,0,4.063,10.579A8.022,8.022,0,0,0,1147.134,3374.725Zm-35.806,67.033a7.8,7.8,0,1,0-2.443-10.76A7.817,7.817,0,0,0,1111.328,3441.758Zm-69.8,155.421a2.841,2.841,0,1,0,3.969.611A2.84,2.84,0,0,0,1041.53,3597.179ZM1231.557,3304.1a5.2,5.2,0,1,0-4.15-6.059A5.2,5.2,0,0,0,1231.557,3304.1ZM990.613,3629.324a3.179,3.179,0,1,0,4.325,1.238A3.173,3.173,0,0,0,990.613,3629.324Zm174.231-159.363a3.18,3.18,0,1,0-1-4.385A3.175,3.175,0,0,0,1164.843,3469.96Zm-411.928,41.771a3.86,3.86,0,1,0,3.876-3.841A3.87,3.87,0,0,0,752.915,3511.731Zm258.33-424.062a20.32,20.32,0,1,0,9.416-27.131A20.323,20.323,0,0,0,1011.245,3087.669ZM634.761,3676.6a5.2,5.2,0,1,0,6.312-3.761A5.2,5.2,0,0,0,634.761,3676.6Zm185.023-229.853a3.182,3.182,0,1,0-3.876-2.28A3.19,3.19,0,0,0,819.785,3446.752ZM696.452,3627.829a5.529,5.529,0,1,0,6.219-4.739A5.528,5.528,0,0,0,696.452,3627.829Zm290.253-461.923a8.446,8.446,0,1,0,6.68-9.895A8.443,8.443,0,0,0,986.706,3165.906ZM699.767,3567.333a4.864,4.864,0,1,0,5.527-4.092A4.854,4.854,0,0,0,699.767,3567.333Zm-62.458,47.382a5.858,5.858,0,1,0,7.235-4.036A5.849,5.849,0,0,0,637.31,3614.714Zm-60.669,42.518a5.856,5.856,0,1,0,7.59-3.312A5.851,5.851,0,0,0,576.641,3657.232Zm74.054-101.469a4.53,4.53,0,1,0-5.708,2.909A4.526,4.526,0,0,0,650.695,3555.763Zm386.024-534.075a25.426,25.426,0,1,0,6.786-35.294A25.445,25.445,0,0,0,1036.719,3021.688Zm-48.779-7.21a15.671,15.671,0,1,0,21.984,2.9A15.658,15.658,0,0,0,987.94,3014.477Zm-401.1,710.712a3.858,3.858,0,1,0,4.86-2.479A3.858,3.858,0,0,0,586.842,3725.189Zm58.382,15.84a3.181,3.181,0,1,0,3.758-2.472A3.18,3.18,0,0,0,645.224,3741.029Zm225.665-317.454a4.865,4.865,0,1,0,1.894-6.606A4.865,4.865,0,0,0,870.889,3423.575Zm189.367-209.547a17.626,17.626,0,1,0-18.432-16.793A17.625,17.625,0,0,0,1060.255,3214.028Zm5.914-144.946a23.03,23.03,0,1,0,11.329-30.519A23.044,23.044,0,0,0,1066.169,3069.082Zm-25.3,185.834a15.393,15.393,0,1,0,17.6-12.8A15.388,15.388,0,0,0,1040.869,3254.916ZM821.286,3621.982a5.525,5.525,0,1,0,6.3,4.625A5.523,5.523,0,0,0,821.286,3621.982Zm1.365-61.692a5.853,5.853,0,1,0,6.817,4.695A5.847,5.847,0,0,0,822.651,3560.29Zm146.881-134.766a9.071,9.071,0,1,0-.268-12.822A9.075,9.075,0,0,0,969.532,3425.524Zm-94.25,127.1a6.511,6.511,0,1,0,3.907-8.331A6.521,6.521,0,0,0,875.282,3552.624ZM755.345,3692.615a4.53,4.53,0,1,0,4.512-4.547A4.529,4.529,0,0,0,755.345,3692.615Zm-60.8-4.2a4.865,4.865,0,1,0,5.421-4.233A4.863,4.863,0,0,0,694.546,3688.418Zm123.93-177.8a4.863,4.863,0,1,0-5.727-3.812A4.864,4.864,0,0,0,818.476,3510.618Zm-59.448,61.447a5.2,5.2,0,1,0,5.11-5.273A5.2,5.2,0,0,0,759.028,3572.065Zm159.954-181.855a6.834,6.834,0,1,0,.268-9.656A6.843,6.843,0,0,0,918.983,3390.209ZM816.519,3689.071a3.858,3.858,0,1,0,3.328-4.322A3.86,3.86,0,0,0,816.519,3689.071Zm-59.977-56.722a5.528,5.528,0,1,0,5.477-5.573A5.526,5.526,0,0,0,756.542,3632.349Z" transform="translate(-2427.634 -142.279) rotate(-68)" opacity="0.05" fill="url(#linear-gradient-5)" style="mix-blend-mode: hard-light;isolation: isolate"/>
      </g>
      <path id="Path_1048" data-name="Path 1048" d="M2.4,526.4l1495.413,26.1-1.812,103.79s-199.838,25.564-413.139,7.209c-179.44-15.442-388.326-52.338-555.613-52.338C161.2,611.165,46.4,656.757,46.4,656.757Z" transform="matrix(-1, 0.017, -0.017, -1, 1509.285, 1426.046)" fill="#1779b6"/>
    </g>
  </g>
</svg>
